0
SECTION
2
HEADER
0
ENDSEC
0
SECTION
2
TABLES
0
TABLE
2
LAYER
70
6
0
LAYER
2
BARNDSL-ENVELOPE
70
0
62
7
6
CONTINUOUS
0
LAYER
2
BARNDSL-ROOMS
70
0
62
8
6
CONTINUOUS
0
LAYER
2
BARNDSL-OPENINGS
70
0
62
5
6
CONTINUOUS
0
LAYER
2
BARNDSL-TEXT
70
0
62
3
6
CONTINUOUS
0
LAYER
2
BARNDSL-PORCH
70
0
62
2
6
CONTINUOUS
0
LAYER
2
BARNDSL-STAIRS
70
0
62
4
6
CONTINUOUS
0
ENDTAB
0
ENDSEC
0
SECTION
2
ENTITIES
0
LINE
8
BARNDSL-ENVELOPE
10
0.0000
20
0.0000
30
0.0
11
90.0000
21
0.0000
31
0.0
0
LINE
8
BARNDSL-ENVELOPE
10
90.0000
20
0.0000
30
0.0
11
90.0000
21
60.0000
31
0.0
0
LINE
8
BARNDSL-ENVELOPE
10
90.0000
20
60.0000
30
0.0
11
0.0000
21
60.0000
31
0.0
0
LINE
8
BARNDSL-ENVELOPE
10
0.0000
20
60.0000
30
0.0
11
0.0000
21
0.0000
31
0.0
0
LINE
8
BARNDSL-ROOMS
10
0.0000
20
0.0000
30
0.0
11
28.0000
21
0.0000
31
0.0
0
LINE
8
BARNDSL-ROOMS
10
28.0000
20
0.0000
30
0.0
11
28.0000
21
20.0000
31
0.0
0
LINE
8
BARNDSL-ROOMS
10
28.0000
20
20.0000
30
0.0
11
0.0000
21
20.0000
31
0.0
0
LINE
8
BARNDSL-ROOMS
10
0.0000
20
20.0000
30
0.0
11
0.0000
21
0.0000
31
0.0
0
TEXT
8
BARNDSL-TEXT
10
0.4000
20
10.3000
30
0.0
40
0.8000
1
Living
0
TEXT
8
BARNDSL-TEXT
10
0.4000
20
9.1000
30
0.0
40
0.6000
1
560 SF
0
LINE
8
BARNDSL-ROOMS
10
28.0000
20
0.0000
30
0.0
11
44.0000
21
0.0000
31
0.0
0
LINE
8
BARNDSL-ROOMS
10
44.0000
20
0.0000
30
0.0
11
44.0000
21
16.0000
31
0.0
0
LINE
8
BARNDSL-ROOMS
10
44.0000
20
16.0000
30
0.0
11
28.0000
21
16.0000
31
0.0
0
LINE
8
BARNDSL-ROOMS
10
28.0000
20
16.0000
30
0.0
11
28.0000
21
0.0000
31
0.0
0
TEXT
8
BARNDSL-TEXT
10
28.4000
20
8.3000
30
0.0
40
0.8000
1
Kitchen
0
TEXT
8
BARNDSL-TEXT
10
28.4000
20
7.1000
30
0.0
40
0.6000
1
256 SF
0
LINE
8
BARNDSL-ROOMS
10
28.0000
20
16.0000
30
0.0
11
36.0000
21
16.0000
31
0.0
0
LINE
8
BARNDSL-ROOMS
10
36.0000
20
16.0000
30
0.0
11
36.0000
21
20.0000
31
0.0
0
LINE
8
BARNDSL-ROOMS
10
36.0000
20
20.0000
30
0.0
11
28.0000
21
20.0000
31
0.0
0
LINE
8
BARNDSL-ROOMS
10
28.0000
20
20.0000
30
0.0
11
28.0000
21
16.0000
31
0.0
0
TEXT
8
BARNDSL-TEXT
10
28.4000
20
18.3000
30
0.0
40
0.8000
1
Pantry
0
TEXT
8
BARNDSL-TEXT
10
28.4000
20
17.1000
30
0.0
40
0.6000
1
32 SF
0
LINE
8
BARNDSL-ROOMS
10
36.0000
20
16.0000
30
0.0
11
44.0000
21
16.0000
31
0.0
0
LINE
8
BARNDSL-ROOMS
10
44.0000
20
16.0000
30
0.0
11
44.0000
21
20.0000
31
0.0
0
LINE
8
BARNDSL-ROOMS
10
44.0000
20
20.0000
30
0.0
11
36.0000
21
20.0000
31
0.0
0
LINE
8
BARNDSL-ROOMS
10
36.0000
20
20.0000
30
0.0
11
36.0000
21
16.0000
31
0.0
0
TEXT
8
BARNDSL-TEXT
10
36.4000
20
18.3000
30
0.0
40
0.8000
1
Mud
0
TEXT
8
BARNDSL-TEXT
10
36.4000
20
17.1000
30
0.0
40
0.6000
1
32 SF
0
LINE
8
BARNDSL-ROOMS
10
44.0000
20
0.0000
30
0.0
11
54.0000
21
0.0000
31
0.0
0
LINE
8
BARNDSL-ROOMS
10
54.0000
20
0.0000
30
0.0
11
54.0000
21
20.0000
31
0.0
0
LINE
8
BARNDSL-ROOMS
10
54.0000
20
20.0000
30
0.0
11
44.0000
21
20.0000
31
0.0
0
LINE
8
BARNDSL-ROOMS
10
44.0000
20
20.0000
30
0.0
11
44.0000
21
0.0000
31
0.0
0
TEXT
8
BARNDSL-TEXT
10
44.4000
20
10.3000
30
0.0
40
0.8000
1
Lounge
0
TEXT
8
BARNDSL-TEXT
10
44.4000
20
9.1000
30
0.0
40
0.6000
1
200 SF
0
LINE
8
BARNDSL-ROOMS
10
0.0000
20
20.0000
30
0.0
11
54.0000
21
20.0000
31
0.0
0
LINE
8
BARNDSL-ROOMS
10
54.0000
20
20.0000
30
0.0
11
54.0000
21
24.0000
31
0.0
0
LINE
8
BARNDSL-ROOMS
10
54.0000
20
24.0000
30
0.0
11
0.0000
21
24.0000
31
0.0
0
LINE
8
BARNDSL-ROOMS
10
0.0000
20
24.0000
30
0.0
11
0.0000
21
20.0000
31
0.0
0
TEXT
8
BARNDSL-TEXT
10
0.4000
20
22.3000
30
0.0
40
0.8000
1
Hall
0
TEXT
8
BARNDSL-TEXT
10
0.4000
20
21.1000
30
0.0
40
0.6000
1
216 SF
0
LINE
8
BARNDSL-ROOMS
10
0.0000
20
24.0000
30
0.0
11
20.0000
21
24.0000
31
0.0
0
LINE
8
BARNDSL-ROOMS
10
20.0000
20
24.0000
30
0.0
11
20.0000
21
44.0000
31
0.0
0
LINE
8
BARNDSL-ROOMS
10
20.0000
20
44.0000
30
0.0
11
0.0000
21
44.0000
31
0.0
0
LINE
8
BARNDSL-ROOMS
10
0.0000
20
44.0000
30
0.0
11
0.0000
21
24.0000
31
0.0
0
TEXT
8
BARNDSL-TEXT
10
0.4000
20
34.3000
30
0.0
40
0.8000
1
Mbed
0
TEXT
8
BARNDSL-TEXT
10
0.4000
20
33.1000
30
0.0
40
0.6000
1
400 SF
0
LINE
8
BARNDSL-ROOMS
10
0.0000
20
44.0000
30
0.0
11
10.0000
21
44.0000
31
0.0
0
LINE
8
BARNDSL-ROOMS
10
10.0000
20
44.0000
30
0.0
11
10.0000
21
60.0000
31
0.0
0
LINE
8
BARNDSL-ROOMS
10
10.0000
20
60.0000
30
0.0
11
0.0000
21
60.0000
31
0.0
0
LINE
8
BARNDSL-ROOMS
10
0.0000
20
60.0000
30
0.0
11
0.0000
21
44.0000
31
0.0
0
TEXT
8
BARNDSL-TEXT
10
0.4000
20
52.3000
30
0.0
40
0.8000
1
Mcloset
0
TEXT
8
BARNDSL-TEXT
10
0.4000
20
51.1000
30
0.0
40
0.6000
1
160 SF
0
LINE
8
BARNDSL-ROOMS
10
10.0000
20
44.0000
30
0.0
11
20.0000
21
44.0000
31
0.0
0
LINE
8
BARNDSL-ROOMS
10
20.0000
20
44.0000
30
0.0
11
20.0000
21
60.0000
31
0.0
0
LINE
8
BARNDSL-ROOMS
10
20.0000
20
60.0000
30
0.0
11
10.0000
21
60.0000
31
0.0
0
LINE
8
BARNDSL-ROOMS
10
10.0000
20
60.0000
30
0.0
11
10.0000
21
44.0000
31
0.0
0
TEXT
8
BARNDSL-TEXT
10
10.4000
20
52.3000
30
0.0
40
0.8000
1
Mbath
0
TEXT
8
BARNDSL-TEXT
10
10.4000
20
51.1000
30
0.0
40
0.6000
1
160 SF
0
LINE
8
BARNDSL-ROOMS
10
20.0000
20
24.0000
30
0.0
11
24.0000
21
24.0000
31
0.0
0
LINE
8
BARNDSL-ROOMS
10
24.0000
20
24.0000
30
0.0
11
24.0000
21
48.0000
31
0.0
0
LINE
8
BARNDSL-ROOMS
10
24.0000
20
48.0000
30
0.0
11
20.0000
21
48.0000
31
0.0
0
LINE
8
BARNDSL-ROOMS
10
20.0000
20
48.0000
30
0.0
11
20.0000
21
24.0000
31
0.0
0
TEXT
8
BARNDSL-TEXT
10
20.4000
20
36.3000
30
0.0
40
0.8000
1
Hall2
0
TEXT
8
BARNDSL-TEXT
10
20.4000
20
35.1000
30
0.0
40
0.6000
1
96 SF
0
LINE
8
BARNDSL-ROOMS
10
24.0000
20
44.0000
30
0.0
11
54.0000
21
44.0000
31
0.0
0
LINE
8
BARNDSL-ROOMS
10
54.0000
20
44.0000
30
0.0
11
54.0000
21
48.0000
31
0.0
0
LINE
8
BARNDSL-ROOMS
10
54.0000
20
48.0000
30
0.0
11
24.0000
21
48.0000
31
0.0
0
LINE
8
BARNDSL-ROOMS
10
24.0000
20
48.0000
30
0.0
11
24.0000
21
44.0000
31
0.0
0
TEXT
8
BARNDSL-TEXT
10
24.4000
20
46.3000
30
0.0
40
0.8000
1
Hall3
0
TEXT
8
BARNDSL-TEXT
10
24.4000
20
45.1000
30
0.0
40
0.6000
1
120 SF
0
LINE
8
BARNDSL-ROOMS
10
24.0000
20
24.0000
30
0.0
11
36.0000
21
24.0000
31
0.0
0
LINE
8
BARNDSL-ROOMS
10
36.0000
20
24.0000
30
0.0
11
36.0000
21
34.0000
31
0.0
0
LINE
8
BARNDSL-ROOMS
10
36.0000
20
34.0000
30
0.0
11
24.0000
21
34.0000
31
0.0
0
LINE
8
BARNDSL-ROOMS
10
24.0000
20
34.0000
30
0.0
11
24.0000
21
24.0000
31
0.0
0
TEXT
8
BARNDSL-TEXT
10
24.4000
20
29.3000
30
0.0
40
0.8000
1
Safe
0
TEXT
8
BARNDSL-TEXT
10
24.4000
20
28.1000
30
0.0
40
0.6000
1
120 SF
0
LINE
8
BARNDSL-ROOMS
10
36.0000
20
24.0000
30
0.0
11
42.0000
21
24.0000
31
0.0
0
LINE
8
BARNDSL-ROOMS
10
42.0000
20
24.0000
30
0.0
11
42.0000
21
34.0000
31
0.0
0
LINE
8
BARNDSL-ROOMS
10
42.0000
20
34.0000
30
0.0
11
36.0000
21
34.0000
31
0.0
0
LINE
8
BARNDSL-ROOMS
10
36.0000
20
34.0000
30
0.0
11
36.0000
21
24.0000
31
0.0
0
TEXT
8
BARNDSL-TEXT
10
36.4000
20
29.3000
30
0.0
40
0.8000
1
Half
0
TEXT
8
BARNDSL-TEXT
10
36.4000
20
28.1000
30
0.0
40
0.6000
1
60 SF
0
LINE
8
BARNDSL-ROOMS
10
42.0000
20
24.0000
30
0.0
11
54.0000
21
24.0000
31
0.0
0
LINE
8
BARNDSL-ROOMS
10
54.0000
20
24.0000
30
0.0
11
54.0000
21
34.0000
31
0.0
0
LINE
8
BARNDSL-ROOMS
10
54.0000
20
34.0000
30
0.0
11
42.0000
21
34.0000
31
0.0
0
LINE
8
BARNDSL-ROOMS
10
42.0000
20
34.0000
30
0.0
11
42.0000
21
24.0000
31
0.0
0
TEXT
8
BARNDSL-TEXT
10
42.4000
20
29.3000
30
0.0
40
0.8000
1
Store
0
TEXT
8
BARNDSL-TEXT
10
42.4000
20
28.1000
30
0.0
40
0.6000
1
120 SF
0
LINE
8
BARNDSL-ROOMS
10
24.0000
20
34.0000
30
0.0
11
36.0000
21
34.0000
31
0.0
0
LINE
8
BARNDSL-ROOMS
10
36.0000
20
34.0000
30
0.0
11
36.0000
21
44.0000
31
0.0
0
LINE
8
BARNDSL-ROOMS
10
36.0000
20
44.0000
30
0.0
11
24.0000
21
44.0000
31
0.0
0
LINE
8
BARNDSL-ROOMS
10
24.0000
20
44.0000
30
0.0
11
24.0000
21
34.0000
31
0.0
0
TEXT
8
BARNDSL-TEXT
10
24.4000
20
39.3000
30
0.0
40
0.8000
1
Bath2
0
TEXT
8
BARNDSL-TEXT
10
24.4000
20
38.1000
30
0.0
40
0.6000
1
120 SF
0
LINE
8
BARNDSL-ROOMS
10
36.0000
20
34.0000
30
0.0
11
54.0000
21
34.0000
31
0.0
0
LINE
8
BARNDSL-ROOMS
10
54.0000
20
34.0000
30
0.0
11
54.0000
21
44.0000
31
0.0
0
LINE
8
BARNDSL-ROOMS
10
54.0000
20
44.0000
30
0.0
11
36.0000
21
44.0000
31
0.0
0
LINE
8
BARNDSL-ROOMS
10
36.0000
20
44.0000
30
0.0
11
36.0000
21
34.0000
31
0.0
0
TEXT
8
BARNDSL-TEXT
10
36.4000
20
39.3000
30
0.0
40
0.8000
1
Laundry
0
TEXT
8
BARNDSL-TEXT
10
36.4000
20
38.1000
30
0.0
40
0.6000
1
180 SF
0
LINE
8
BARNDSL-ROOMS
10
20.0000
20
48.0000
30
0.0
11
32.0000
21
48.0000
31
0.0
0
LINE
8
BARNDSL-ROOMS
10
32.0000
20
48.0000
30
0.0
11
32.0000
21
60.0000
31
0.0
0
LINE
8
BARNDSL-ROOMS
10
32.0000
20
60.0000
30
0.0
11
20.0000
21
60.0000
31
0.0
0
LINE
8
BARNDSL-ROOMS
10
20.0000
20
60.0000
30
0.0
11
20.0000
21
48.0000
31
0.0
0
TEXT
8
BARNDSL-TEXT
10
20.4000
20
54.3000
30
0.0
40
0.8000
1
Bed2
0
TEXT
8
BARNDSL-TEXT
10
20.4000
20
53.1000
30
0.0
40
0.6000
1
144 SF
0
LINE
8
BARNDSL-ROOMS
10
32.0000
20
48.0000
30
0.0
11
38.0000
21
48.0000
31
0.0
0
LINE
8
BARNDSL-ROOMS
10
38.0000
20
48.0000
30
0.0
11
38.0000
21
60.0000
31
0.0
0
LINE
8
BARNDSL-ROOMS
10
38.0000
20
60.0000
30
0.0
11
32.0000
21
60.0000
31
0.0
0
LINE
8
BARNDSL-ROOMS
10
32.0000
20
60.0000
30
0.0
11
32.0000
21
48.0000
31
0.0
0
TEXT
8
BARNDSL-TEXT
10
32.4000
20
54.3000
30
0.0
40
0.8000
1
Closet2
0
TEXT
8
BARNDSL-TEXT
10
32.4000
20
53.1000
30
0.0
40
0.6000
1
72 SF
0
LINE
8
BARNDSL-ROOMS
10
38.0000
20
48.0000
30
0.0
11
44.0000
21
48.0000
31
0.0
0
LINE
8
BARNDSL-ROOMS
10
44.0000
20
48.0000
30
0.0
11
44.0000
21
60.0000
31
0.0
0
LINE
8
BARNDSL-ROOMS
10
44.0000
20
60.0000
30
0.0
11
38.0000
21
60.0000
31
0.0
0
LINE
8
BARNDSL-ROOMS
10
38.0000
20
60.0000
30
0.0
11
38.0000
21
48.0000
31
0.0
0
TEXT
8
BARNDSL-TEXT
10
38.4000
20
54.3000
30
0.0
40
0.8000
1
Closet3
0
TEXT
8
BARNDSL-TEXT
10
38.4000
20
53.1000
30
0.0
40
0.6000
1
72 SF
0
LINE
8
BARNDSL-ROOMS
10
44.0000
20
48.0000
30
0.0
11
54.0000
21
48.0000
31
0.0
0
LINE
8
BARNDSL-ROOMS
10
54.0000
20
48.0000
30
0.0
11
54.0000
21
60.0000
31
0.0
0
LINE
8
BARNDSL-ROOMS
10
54.0000
20
60.0000
30
0.0
11
44.0000
21
60.0000
31
0.0
0
LINE
8
BARNDSL-ROOMS
10
44.0000
20
60.0000
30
0.0
11
44.0000
21
48.0000
31
0.0
0
TEXT
8
BARNDSL-TEXT
10
44.4000
20
54.3000
30
0.0
40
0.8000
1
Bed3
0
TEXT
8
BARNDSL-TEXT
10
44.4000
20
53.1000
30
0.0
40
0.6000
1
120 SF
0
LINE
8
BARNDSL-ROOMS
10
54.0000
20
0.0000
30
0.0
11
72.0000
21
0.0000
31
0.0
0
LINE
8
BARNDSL-ROOMS
10
72.0000
20
0.0000
30
0.0
11
72.0000
21
30.0000
31
0.0
0
LINE
8
BARNDSL-ROOMS
10
72.0000
20
30.0000
30
0.0
11
54.0000
21
30.0000
31
0.0
0
LINE
8
BARNDSL-ROOMS
10
54.0000
20
30.0000
30
0.0
11
54.0000
21
0.0000
31
0.0
0
TEXT
8
BARNDSL-TEXT
10
54.4000
20
15.3000
30
0.0
40
0.8000
1
Turf
0
TEXT
8
BARNDSL-TEXT
10
54.4000
20
14.1000
30
0.0
40
0.6000
1
540 SF
0
LINE
8
BARNDSL-ROOMS
10
54.0000
20
30.0000
30
0.0
11
72.0000
21
30.0000
31
0.0
0
LINE
8
BARNDSL-ROOMS
10
72.0000
20
30.0000
30
0.0
11
72.0000
21
60.0000
31
0.0
0
LINE
8
BARNDSL-ROOMS
10
72.0000
20
60.0000
30
0.0
11
54.0000
21
60.0000
31
0.0
0
LINE
8
BARNDSL-ROOMS
10
54.0000
20
60.0000
30
0.0
11
54.0000
21
30.0000
31
0.0
0
TEXT
8
BARNDSL-TEXT
10
54.4000
20
45.3000
30
0.0
40
0.8000
1
Tumble
0
TEXT
8
BARNDSL-TEXT
10
54.4000
20
44.1000
30
0.0
40
0.6000
1
540 SF
0
LINE
8
BARNDSL-ROOMS
10
72.0000
20
0.0000
30
0.0
11
90.0000
21
0.0000
31
0.0
0
LINE
8
BARNDSL-ROOMS
10
90.0000
20
0.0000
30
0.0
11
90.0000
21
60.0000
31
0.0
0
LINE
8
BARNDSL-ROOMS
10
90.0000
20
60.0000
30
0.0
11
72.0000
21
60.0000
31
0.0
0
LINE
8
BARNDSL-ROOMS
10
72.0000
20
60.0000
30
0.0
11
72.0000
21
0.0000
31
0.0
0
TEXT
8
BARNDSL-TEXT
10
72.4000
20
30.3000
30
0.0
40
0.8000
1
Boat
0
TEXT
8
BARNDSL-TEXT
10
72.4000
20
29.1000
30
0.0
40
0.6000
1
1080 SF
0
LINE
8
BARNDSL-OPENINGS
10
3.0000
20
0.0000
30
0.0
11
13.0000
21
0.0000
31
0.0
0
LINE
8
BARNDSL-OPENINGS
10
0.0000
20
6.0000
30
0.0
11
0.0000
21
14.0000
31
0.0
0
LINE
8
BARNDSL-OPENINGS
10
28.5000
20
0.0000
30
0.0
11
35.5000
21
0.0000
31
0.0
0
LINE
8
BARNDSL-OPENINGS
10
46.0000
20
0.0000
30
0.0
11
52.0000
21
0.0000
31
0.0
0
LINE
8
BARNDSL-OPENINGS
10
0.0000
20
31.0000
30
0.0
11
0.0000
21
41.0000
31
0.0
0
LINE
8
BARNDSL-OPENINGS
10
13.0000
20
60.0000
30
0.0
11
16.0000
21
60.0000
31
0.0
0
LINE
8
BARNDSL-OPENINGS
10
24.0000
20
60.0000
30
0.0
11
29.0000
21
60.0000
31
0.0
0
LINE
8
BARNDSL-OPENINGS
10
47.0000
20
60.0000
30
0.0
11
52.0000
21
60.0000
31
0.0
0
LINE
8
BARNDSL-OPENINGS
10
59.0000
20
0.0000
30
0.0
11
67.0000
21
0.0000
31
0.0
0
LINE
8
BARNDSL-OPENINGS
10
59.0000
20
60.0000
30
0.0
11
67.0000
21
60.0000
31
0.0
0
LINE
8
BARNDSL-OPENINGS
10
54.0000
20
6.0000
30
0.0
11
54.0000
21
12.0000
31
0.0
0
LINE
8
BARNDSL-OPENINGS
10
59.0000
20
30.0000
30
0.0
11
67.0000
21
30.0000
31
0.0
0
LINE
8
BARNDSL-OPENINGS
10
72.0000
20
8.0000
30
0.0
11
72.0000
21
14.0000
31
0.0
0
LINE
8
BARNDSL-OPENINGS
10
72.0000
20
38.0000
30
0.0
11
72.0000
21
44.0000
31
0.0
0
LINE
8
BARNDSL-OPENINGS
10
20.0000
20
0.0000
30
0.0
11
23.0000
21
0.0000
31
0.0
0
LINE
8
BARNDSL-OPENINGS
10
0.0000
20
20.5000
30
0.0
11
0.0000
21
23.5000
31
0.0
0
LINE
8
BARNDSL-OPENINGS
10
55.0000
20
0.0000
30
0.0
11
58.0000
21
0.0000
31
0.0
0
LINE
8
BARNDSL-OPENINGS
10
55.0000
20
60.0000
30
0.0
11
58.0000
21
60.0000
31
0.0
0
LINE
8
BARNDSL-OPENINGS
10
75.0000
20
0.0000
30
0.0
11
78.0000
21
0.0000
31
0.0
0
LINE
8
BARNDSL-OPENINGS
10
90.0000
20
1.5000
30
0.0
11
90.0000
21
13.5000
31
0.0
0
ENDSEC
0
EOF
